# xmcd
# 
# Track frame offsets:
#   300
#   17219
#   32110
#   50321
# 
# Disc length: 912 seconds
# 
# Revision: 1
# Processed by: cddbd v1.5.2PL0 Copyright (c) Steve Scherf et al.
# Submitted via: Synapstar 1.0 
# 
DISCID=2c038c04
DTITLE=Various Artist - MARCH MIX KARAOKE
DYEAR=1997
DGENRE=Country
TTITLE0=Brad martin - Before I Knew Better
TTITLE1=Jake Owen - Eight Second Ride
TTITLE2=Rent - Out Tonight
TTITLE3=Saving Abel - Addicted
EXTD=YEAR: 1997 MediaType: Karaoke CD+G Producer: Unknown
EXTT0=
EXTT1=
EXTT2=
EXTT3=
PLAYORDER=
